<?xml version="1.0" encoding="UTF-8" standalone="no"?>
<!DOCTYPE svg PUBLIC "-//W3C//DTD SVG 1.1//EN" "http://www.w3.org/Graphics/SVG/1.1/DTD/svg11.dtd">
<svg width="100%" height="100%" viewBox="0 0 500 500" version="1.1" xmlns="http://www.w3.org/2000/svg" xmlns:xlink="http://www.w3.org/1999/xlink" xml:space="preserve" xmlns:serif="http://www.serif.com/" style="fill-rule:evenodd;clip-rule:evenodd;stroke-linecap:round;stroke-linejoin:round;stroke-miterlimit:1.5;">
    <g transform="matrix(1,0,0,1,-3.22145,-7.66778)">
        <circle cx="250" cy="250.027" r="142.973" style="fill:white;stroke:rgb(142,0,181);stroke-width:3.45px;"/>
    </g>
    <g transform="matrix(0.736331,0,0,0.736331,13.7481,-154.567)">
        <path d="M193.975,569.586L193.975,536.984C195.793,538.97 197.853,540.728 200.1,542.227L200.1,530.707C196.292,526.381 193.975,520.712 193.975,514.509L193.975,476.659C193.975,463.122 204.988,452.108 218.524,452.108C224.748,452.108 230.433,454.44 234.765,458.27C241.055,458.525 246.899,460.531 251.825,463.816L251.825,439.284C251.825,424.72 263.674,412.871 278.239,412.871C284.698,412.871 290.62,415.205 295.214,419.069C303.232,419.544 310.527,422.72 316.218,427.695C320.61,418.916 329.687,412.871 340.152,412.871C346.652,412.871 352.616,415.203 357.256,419.072C365.129,419.562 372.305,422.636 377.967,427.445C381.582,420.216 389.054,415.237 397.672,415.237C403.575,415.237 408.938,417.576 412.896,421.371C417.413,421.421 421.697,422.449 425.55,424.253C420.64,413.77 409.993,406.487 397.672,406.487C386.255,406.487 376.271,412.737 370.96,421.996C364.831,411.323 353.317,404.121 340.152,404.121C326.808,404.121 315.16,411.522 309.097,422.435C303.118,411.53 291.527,404.121 278.239,404.121C258.849,404.121 243.075,419.895 243.075,439.284L243.075,454.183C236.982,447.533 228.232,443.358 218.524,443.358C200.163,443.358 185.225,458.296 185.225,476.658L185.225,569.586C185.225,603.772 200.86,634.376 225.354,654.621C215.553,642.763 208.187,628.824 204.009,613.581C197.58,600.264 193.975,585.338 193.975,569.586Z" style="fill:rgb(255,48,214);fill-rule:nonzero;"/>
    </g>
    <g transform="matrix(0.736331,0,0,0.736331,13.7481,-154.567)">
        <path d="M452.841,543.229C450.62,537.299 447.415,531.742 443.316,526.799L443.316,452.13C443.316,439.81 436.033,429.163 425.55,424.253C427.4,428.206 428.441,432.61 428.441,437.255L428.441,511.924C432.54,516.867 435.745,522.424 437.966,528.354C440.306,534.579 441.59,541.314 441.6,548.346L441.6,548.428C441.6,620.908 382.632,679.876 310.152,679.876L295.513,679.876C268.886,679.876 244.433,670.39 225.354,654.621C245.6,679.115 276.202,694.751 310.388,694.751L325.027,694.751C397.507,694.751 456.475,635.783 456.475,563.303L456.475,563.221C456.465,556.189 455.181,549.454 452.841,543.229Z" style="fill:rgb(69,233,255);fill-rule:nonzero;"/>
    </g>
    <g transform="matrix(0.736331,0,0,0.736331,13.7481,-154.567)">
        <path d="M200.1,491.533L200.1,530.707C204.602,535.822 211.19,539.059 218.524,539.059C232.062,539.059 243.075,528.046 243.075,514.509L243.075,476.659C243.075,469.345 239.856,462.771 234.765,458.27C234.312,458.252 233.857,458.233 233.399,458.233C215.038,458.233 200.1,473.171 200.1,491.533Z" style="fill:rgb(69,233,255);fill-rule:nonzero;"/>
    </g>
    <g transform="matrix(0.736331,0,0,0.736331,13.7481,-154.567)">
        <path d="M204.009,613.581C220.431,647.6 255.276,671.126 295.513,671.126L310.152,671.126C377.808,671.126 432.85,616.084 432.85,548.428L432.85,548.285C432.833,542.512 431.789,536.843 429.81,531.523C422.935,513.108 405.164,499.958 384.38,499.958L257.797,499.958C254.504,499.958 251.825,502.637 251.825,505.93L251.825,512.404C251.825,535.281 270.437,553.893 293.313,553.893L356.118,553.893L356.118,562.643L355.401,562.643C329.713,562.643 308.815,583.541 308.815,609.228L308.815,624.301L300.065,624.301L300.065,609.228C300.065,589.694 310.238,572.492 325.565,562.643L293.313,562.643C272.484,562.643 254.576,549.902 246.972,531.805C241.119,541.394 230.557,547.809 218.524,547.809C211.715,547.809 205.38,545.748 200.1,542.227L200.1,584.461C200.1,594.538 201.466,604.301 204.009,613.581Z" style="fill:rgb(69,233,255);fill-rule:nonzero;"/>
    </g>
    <g transform="matrix(0.736331,0,0,0.736331,13.7481,-154.567)">
        <path d="M385.835,436.871C383.777,433.286 381.1,430.105 377.967,427.445C376.489,430.401 375.653,433.731 375.653,437.255L375.653,491.208L384.38,491.208C397.693,491.208 409.959,495.779 419.691,503.432L419.691,437.255C419.691,431.017 417.079,425.381 412.896,421.371C412.78,421.369 412.664,421.362 412.547,421.362C401.13,421.362 391.146,427.612 385.835,436.871Z" style="fill:rgb(69,233,255);fill-rule:nonzero;"/>
    </g>
    <g transform="matrix(0.736331,0,0,0.736331,13.7481,-154.567)">
        <path d="M323.972,437.31C321.971,433.66 319.33,430.415 316.218,427.695C314.42,431.289 313.402,435.337 313.402,439.622L313.402,491.208L366.903,491.208L366.903,439.622C366.903,431.371 363.146,423.982 357.256,419.072C356.519,419.026 355.776,418.996 355.027,418.996C341.683,418.996 330.035,426.397 323.972,437.31Z" style="fill:rgb(69,233,255);fill-rule:nonzero;"/>
    </g>
    <g transform="matrix(0.736331,0,0,0.736331,13.7481,-154.567)">
        <path d="M257.95,454.159L257.95,469.058C256.131,467.073 254.071,465.314 251.825,463.816L251.825,492.474C253.651,491.661 255.672,491.208 257.797,491.208L304.652,491.208L304.652,439.284C304.652,431.179 300.979,423.918 295.214,419.069C294.518,419.027 293.82,418.996 293.114,418.996C273.724,418.996 257.95,434.77 257.95,454.159Z" style="fill:rgb(69,233,255);fill-rule:nonzero;"/>
    </g>
    <g transform="matrix(0.736331,0,0,0.736331,13.7481,-154.567)">
        <path d="M310.152,679.876C382.632,679.876 441.6,620.908 441.6,548.428L441.6,548.346C441.59,541.314 440.306,534.579 437.966,528.354C435.745,522.424 432.54,516.867 428.441,511.924L428.441,437.255C428.441,432.61 427.4,428.206 425.55,424.253C421.697,422.449 417.413,421.421 412.896,421.371C417.079,425.381 419.691,431.017 419.691,437.255L419.691,503.432C409.959,495.779 397.693,491.208 384.38,491.208L375.653,491.208L375.653,437.255C375.653,433.731 376.489,430.401 377.967,427.445C372.305,422.636 365.129,419.562 357.256,419.072C363.146,423.982 366.903,431.371 366.903,439.622L366.903,491.208L313.402,491.208L313.402,439.622C313.402,435.337 314.42,431.289 316.218,427.695C310.527,422.72 303.232,419.544 295.214,419.069C300.979,423.918 304.652,431.179 304.652,439.284L304.652,491.208L257.797,491.208C255.672,491.208 253.651,491.661 251.825,492.474L251.825,463.816C246.899,460.531 241.055,458.525 234.765,458.27C239.856,462.771 243.075,469.345 243.075,476.659L243.075,514.509C243.075,528.046 232.062,539.059 218.524,539.059C211.19,539.059 204.602,535.822 200.1,530.707L200.1,542.227C205.38,545.748 211.715,547.809 218.524,547.809C230.557,547.809 241.119,541.394 246.972,531.805C254.576,549.902 272.484,562.643 293.313,562.643L325.565,562.643C310.238,572.492 300.065,589.694 300.065,609.228L300.065,624.301L308.815,624.301L308.815,609.228C308.815,583.541 329.713,562.643 355.401,562.643L356.118,562.643L356.118,553.893L293.313,553.893C270.437,553.893 251.825,535.281 251.825,512.404L251.825,505.93C251.825,502.637 254.504,499.958 257.797,499.958L384.38,499.958C405.164,499.958 422.935,513.108 429.81,531.523C431.789,536.843 432.833,542.512 432.85,548.285L432.85,548.428C432.85,616.084 377.808,671.126 310.152,671.126L295.513,671.126C255.276,671.126 220.431,647.6 204.009,613.581C208.187,628.824 215.553,642.763 225.354,654.621C244.433,670.39 268.886,679.876 295.513,679.876L310.152,679.876Z" style="fill:rgb(69,44,214);fill-rule:nonzero;"/>
    </g>
</svg>
